<svg width="54" height="54" viewBox="0 0 54 54" fill="none" xmlns="http://www.w3.org/2000/svg">
<circle cx="27" cy="27" r="26" stroke="#F26060" stroke-width="2"/>
<path d="M16.21 24.07H19.21C19.4286 24.0422 19.6506 24.0596 19.8622 24.1211C20.0739 24.1826 20.2706 24.2869 20.4403 24.4275C20.61 24.5681 20.749 24.7421 20.8487 24.9386C20.9484 25.1351 21.0067 25.35 21.02 25.57C21.026 25.8509 20.9497 26.1275 20.8004 26.3656C20.6512 26.6037 20.4355 26.7929 20.18 26.91C20.4961 27.0246 20.7702 27.232 20.9664 27.505C21.1627 27.778 21.272 28.1039 21.28 28.44C21.2659 28.6822 21.2016 28.9188 21.0912 29.1349C20.9808 29.3509 20.8266 29.5416 20.6386 29.6949C20.4505 29.8482 20.2326 29.9607 19.9987 30.0252C19.7648 30.0898 19.5201 30.105 19.28 30.07H16.21V24.07ZM18.92 26.49C19.4 26.49 19.74 26.21 19.74 25.82C19.74 25.43 19.4 25.17 18.92 25.17H17.49V26.49H18.92ZM19.12 28.97C19.2289 28.9921 19.3414 28.9897 19.4493 28.963C19.5572 28.9363 19.6578 28.886 19.7439 28.8157C19.83 28.7453 19.8993 28.6567 19.9469 28.5563C19.9946 28.4559 20.0193 28.3461 20.0193 28.235C20.0193 28.1238 19.9946 28.0141 19.9469 27.9136C19.8993 27.8132 19.83 27.7246 19.7439 27.6543C19.6578 27.5839 19.5572 27.5336 19.4493 27.5069C19.3414 27.4802 19.2289 27.4779 19.12 27.5H17.49V29L19.12 28.97Z" fill="#F26060"/>
<path d="M23.55 25.2299V26.4299H26.55V27.5899H23.55V28.9099H26.88V30.0699H22.26V24.0699H26.88V25.2299H23.55Z" fill="#F26060"/>
<path d="M29.41 25.2299H27.54V24.0699H32.54V25.2299H30.7V30.0699H29.41V25.2299Z" fill="#F26060"/>
<path d="M37 29.1199H34.32L33.94 30.0699H32.5L34.94 24.0699H36.38L38.83 30.0699H37.38L37 29.1199ZM36.55 27.9999L35.66 25.8099L34.77 27.9999H36.55Z" fill="#F26060"/>
<path d="M17.06 40C16.9288 40.0034 16.7987 39.976 16.68 39.92C16.4974 39.845 16.3411 39.7176 16.2307 39.5539C16.1204 39.3901 16.061 39.1974 16.06 39V35H12.06C11.7948 35 11.5404 34.8946 11.3529 34.7071C11.1654 34.5196 11.06 34.2652 11.06 34V20C11.06 19.7348 11.1654 19.4804 11.3529 19.2929C11.5404 19.1054 11.7948 19 12.06 19H42.06C42.3252 19 42.5796 19.1054 42.7671 19.2929C42.9546 19.4804 43.06 19.7348 43.06 20V34C43.06 34.2652 42.9546 34.5196 42.7671 34.7071C42.5796 34.8946 42.3252 35 42.06 35H22.48L17.77 39.71C17.6766 39.8027 17.5657 39.876 17.4439 39.9258C17.3221 39.9755 17.1916 40.0008 17.06 40ZM13.06 33H17.06C17.3252 33 17.5796 33.1054 17.7671 33.2929C17.9546 33.4804 18.06 33.7348 18.06 34V36.59L21.36 33.29C21.5463 33.1053 21.7977 33.0011 22.06 33H41.06V21H13.06V33Z" fill="#F26060"/>
</svg>
