<svg width="54" height="54" viewBox="0 0 54 54" fill="none" xmlns="http://www.w3.org/2000/svg">
<circle cx="27" cy="27" r="26" stroke="#4E91DA" stroke-width="2"/>
<path d="M42.2953 37.6425H38.033V19.694L39.6984 18.0457L39.6985 20.608C39.6985 20.9972 40.014 21.3127 40.4032 21.3127C40.7924 21.3127 41.1079 20.9972 41.1079 20.608L41.1079 16.2716C41.1079 15.8824 40.7924 15.5669 40.4031 15.5669H36.0669C35.6777 15.5669 35.3622 15.8824 35.3622 16.2716C35.3622 16.6608 35.6777 16.9763 36.0669 16.9763H38.7754L28.2658 27.3779L23.2821 22.3583C23.1498 22.225 22.9698 22.1501 22.782 22.1501C22.782 22.1501 22.7819 22.1501 22.7818 22.1501C22.594 22.1501 22.414 22.2252 22.2817 22.3586L12.7812 31.9379C12.5072 32.2143 12.509 32.6605 12.7853 32.9345C12.9227 33.0709 13.1021 33.1389 13.2815 33.1389C13.4628 33.1389 13.6441 33.0694 13.7819 32.9305L14.6267 32.0786V37.6426H12.4094V13.7047C12.4094 13.3155 12.0939 13 11.7047 13C11.3155 13 11 13.3155 11 13.7047V38.3473C11 38.7365 11.3155 39.052 11.7047 39.052H42.2953C42.6845 39.052 43 38.7365 43 38.3473C43 37.9581 42.6845 37.6425 42.2953 37.6425ZM36.6236 37.6425H28.9662V28.6677L36.6236 21.089V37.6425ZM23.4867 24.5648L27.5567 28.6641V37.6425H23.4867V24.5648ZM16.0361 30.6574L22.0772 24.566V37.6425H16.0361V30.6574V30.6574Z" fill="#4E91DA"/>
</svg>
