<svg width="54" height="54" viewBox="0 0 54 54" fill="none" xmlns="http://www.w3.org/2000/svg">
<circle cx="27" cy="27" r="26" stroke="#B33ECB" stroke-width="2"/>
<path d="M33.5475 29.0787C34.6366 27.6425 35.2123 25.9283 35.2123 24.1213C35.2123 21.9058 34.3434 19.8289 32.7655 18.2732C31.188 16.7179 29.0971 15.8779 26.8813 15.9099C24.734 15.9403 22.711 16.802 21.1848 18.3361C19.6588 19.8702 18.8076 21.8978 18.7881 24.0453C18.7714 25.8864 19.3504 27.6314 20.4625 29.0918C22.268 31.4627 23.2624 34.3668 23.2624 37.2693V40.4451C23.2624 41.8538 24.4084 42.9999 25.8171 42.9999H28.1935C29.6022 42.9999 30.7482 41.8538 30.7482 40.4451V37.2695C30.7483 34.335 31.7093 31.5026 33.5475 29.0787ZM21.3002 28.454C20.331 27.1812 19.8264 25.6601 19.8409 24.0549C19.8759 20.1988 23.0409 17.0173 26.8962 16.9628C28.8303 16.9368 30.6511 17.6672 32.0263 19.0231C33.4018 20.3793 34.1594 22.19 34.1594 24.1214C34.1594 25.6967 33.6577 27.1909 32.7085 28.4425C30.7717 30.9965 29.7288 33.9761 29.6861 37.0715H24.3138C24.2698 34.0062 23.2035 30.9533 21.3002 28.454ZM24.3153 40.0883V39.6621L29.6954 40.2785V40.4451C29.6954 40.5329 29.6863 40.6183 29.6718 40.702L24.3153 40.0883ZM24.3153 38.6023V38.1244H29.6954V39.2187L24.3153 38.6023ZM25.8171 41.947C25.2516 41.947 24.7585 41.6326 24.5023 41.1695L29.0345 41.6887C28.7944 41.8517 28.5049 41.947 28.1935 41.947H25.8171V41.947Z" fill="#B33ECB"/>
<path d="M21.7941 24.9133C21.7531 24.6378 21.7335 24.3547 21.7361 24.0721C21.7387 23.7814 21.5052 23.5436 21.2145 23.5409C20.9257 23.5384 20.6859 23.7718 20.6833 24.0625C20.6802 24.4002 20.7035 24.7386 20.7527 25.0686C20.7917 25.3299 21.0163 25.5175 21.2728 25.5175C21.2986 25.5175 21.3248 25.5156 21.3511 25.5117C21.6387 25.4687 21.837 25.2009 21.7941 24.9133Z" fill="#B33ECB"/>
<path d="M24.8923 32.9099C24.9468 32.9099 25.0023 32.9013 25.0569 32.8834C25.3331 32.7926 25.4834 32.495 25.3925 32.2189C24.8091 30.4446 23.9395 28.7915 22.808 27.3058C22.621 27.0601 22.4553 26.7985 22.3155 26.5281C22.182 26.2698 21.8644 26.1687 21.6061 26.3022C21.3478 26.4357 21.2467 26.7533 21.3802 27.0116C21.5479 27.3361 21.7465 27.6496 21.9704 27.9437C23.0307 29.336 23.8456 30.8851 24.3923 32.5478C24.4652 32.7694 24.6711 32.9099 24.8923 32.9099Z" fill="#B33ECB"/>
<path d="M32.5317 25.9241C32.2647 25.809 31.9549 25.9323 31.8399 26.1993C31.6732 26.5866 31.4573 26.9561 31.1984 27.2973C31.0227 27.529 31.0682 27.8592 31.2998 28.0349C31.3949 28.1071 31.5067 28.1419 31.6175 28.1419C31.7766 28.1419 31.9339 28.0701 32.0374 27.9335C32.3476 27.5245 32.6065 27.0811 32.8069 26.6158C32.922 26.3488 32.7988 26.0391 32.5317 25.9241Z" fill="#B33ECB"/>
<path d="M27.0001 18.8573C29.9027 18.8573 32.2642 21.2189 32.2642 24.1215C32.2642 24.2866 32.2566 24.4528 32.2417 24.6158C32.2151 24.9053 32.4283 25.1615 32.7178 25.1881C32.7342 25.1896 32.7504 25.1904 32.7665 25.1904C33.0356 25.1904 33.2651 24.9852 33.2902 24.712C33.308 24.5172 33.3171 24.3186 33.3171 24.1215C33.3171 20.6383 30.4833 17.8044 27.0001 17.8044C26.7093 17.8044 26.4736 18.0402 26.4736 18.3309C26.4736 18.6216 26.7093 18.8573 27.0001 18.8573Z" fill="#B33ECB"/>
<path d="M27.0001 15.001C27.2908 15.001 27.5265 14.7653 27.5265 14.4746V11.5265C27.5265 11.2357 27.2908 11 27.0001 11C26.7093 11 26.4736 11.2357 26.4736 11.5265V14.4746C26.4736 14.7653 26.7093 15.001 27.0001 15.001Z" fill="#B33ECB"/>
<path d="M21.6741 16.0413C21.7717 16.2103 21.9486 16.3047 22.1305 16.3047C22.2198 16.3047 22.3103 16.282 22.3932 16.2341C22.645 16.0887 22.7314 15.7667 22.586 15.515L21.1126 12.9627C20.9672 12.7109 20.6453 12.6246 20.3935 12.77C20.1417 12.9153 20.0554 13.2373 20.2007 13.4891L21.6741 16.0413Z" fill="#B33ECB"/>
<path d="M38.2507 30.1008L35.6984 28.6274C35.4466 28.482 35.1246 28.5683 34.9793 28.8202C34.8339 29.0719 34.9202 29.3939 35.1721 29.5393L37.7243 31.0127C37.8072 31.0605 37.8977 31.0833 37.9871 31.0833C38.169 31.0833 38.346 30.9888 38.4435 30.8199C38.5888 30.5681 38.5025 30.2461 38.2507 30.1008Z" fill="#B33ECB"/>
<path d="M15.7495 18.3258L18.3017 19.7992C18.3846 19.847 18.4751 19.8698 18.5644 19.8698C18.7464 19.8698 18.9233 19.7753 19.0208 19.6064C19.1662 19.3546 19.0799 19.0326 18.8281 18.8873L16.2758 17.4139C16.024 17.2685 15.7021 17.3548 15.5567 17.6067C15.4113 17.8584 15.4976 18.1804 15.7495 18.3258Z" fill="#B33ECB"/>
<path d="M39.6869 23.6868H36.7387C36.448 23.6868 36.2123 23.9225 36.2123 24.2132C36.2123 24.504 36.448 24.7397 36.7387 24.7397H39.6869C39.9776 24.7397 40.2133 24.504 40.2133 24.2132C40.2133 23.9225 39.9777 23.6868 39.6869 23.6868Z" fill="#B33ECB"/>
<path d="M17.7878 24.2132C17.7878 23.9225 17.5521 23.6868 17.2613 23.6868H14.3132C14.0225 23.6868 13.7867 23.9225 13.7867 24.2132C13.7867 24.504 14.0225 24.7397 14.3132 24.7397H17.2613C17.5521 24.7397 17.7878 24.504 17.7878 24.2132Z" fill="#B33ECB"/>
<path d="M35.4357 19.8699C35.525 19.8699 35.6155 19.8471 35.6984 19.7992L38.2507 18.3259C38.5024 18.1805 38.5888 17.8585 38.4434 17.6067C38.298 17.355 37.976 17.2686 37.7243 17.414L35.172 18.8874C34.9203 19.0327 34.8339 19.3547 34.9793 19.6065C35.0768 19.7754 35.2538 19.8699 35.4357 19.8699Z" fill="#B33ECB"/>
<path d="M18.3017 28.6274L15.7494 30.1007C15.4977 30.2461 15.4113 30.5681 15.5567 30.8199C15.6542 30.9888 15.8311 31.0832 16.0131 31.0832C16.1024 31.0832 16.1929 31.0605 16.2758 31.0126L18.8281 29.5393C19.0798 29.3939 19.1662 29.0719 19.0208 28.8201C18.8755 28.5683 18.5533 28.482 18.3017 28.6274Z" fill="#B33ECB"/>
<path d="M31.6069 16.2341C31.6898 16.282 31.7802 16.3047 31.8696 16.3047C32.0515 16.3047 32.2285 16.2102 32.326 16.0413L33.7994 13.4891C33.9447 13.2373 33.8584 12.9153 33.6066 12.77C33.3549 12.6246 33.0328 12.7109 32.8875 12.9627L31.4141 15.515C31.2687 15.7667 31.3551 16.0887 31.6069 16.2341Z" fill="#B33ECB"/>
</svg>
