<svg width="54" height="54" viewBox="0 0 54 54" fill="none" xmlns="http://www.w3.org/2000/svg">
<circle cx="27" cy="27" r="26" stroke="#F4B848" stroke-width="2"/>
<g clip-path="url(#clip0_203_8)">
<path d="M31.0115 21.2618C28.7996 19.9858 25.2267 19.9858 23.0279 21.2618C20.8291 22.5379 20.8422 24.6123 23.0541 25.8884C25.2659 27.1645 28.8389 27.1645 31.0377 25.8884C33.2364 24.6058 33.2233 22.5379 31.0115 21.2618ZM29.9972 23.2708C29.8074 23.3297 29.6176 23.3951 29.4279 23.454C29.3101 23.4868 29.2381 23.4933 29.1857 23.4671C29.1596 23.4475 29.1334 23.4213 29.1072 23.3821C28.9829 23.1792 28.7931 23.0025 28.5379 22.8585C28.5052 22.8389 28.4659 22.8193 28.4266 22.7997C28.3416 22.7538 28.263 22.7211 28.1583 22.695C27.7919 22.6099 27.4647 22.7473 27.5105 22.9763C27.5301 23.0941 27.5956 23.1988 27.6741 23.3101C27.805 23.4933 27.9489 23.6765 28.0405 23.8729C28.3481 24.488 27.6806 25.0966 26.6074 25.1555C26.2213 25.1751 25.8549 25.1293 25.5146 25.018C25.3641 24.9722 25.2528 24.9722 25.1416 25.0508C25.0303 25.1227 24.906 25.1882 24.7882 25.2536C24.6835 25.3125 24.5723 25.3191 24.4676 25.2602C24.389 25.2209 24.3171 25.1751 24.2385 25.1358C24.1862 25.1031 24.1338 25.0769 24.0815 25.0442C23.9702 24.9788 23.9833 24.9133 24.088 24.8479C24.1731 24.7955 24.2582 24.7497 24.3367 24.6974C24.5265 24.5861 24.5265 24.5796 24.3694 24.4553C24.1731 24.2982 23.9964 24.1346 23.8852 23.9514C23.8001 23.8074 23.8197 23.7747 24.0488 23.6962C24.2189 23.6438 24.3825 23.5849 24.5526 23.5326C24.677 23.4933 24.749 23.4868 24.8013 23.5129C24.834 23.5326 24.8537 23.5587 24.8798 23.6046C24.9911 23.814 25.1809 23.9972 25.4099 24.1739C25.4492 24.2066 25.495 24.2328 25.5342 24.2589C25.6586 24.3309 25.8025 24.3833 25.9661 24.4225C26.3915 24.5207 26.771 24.3506 26.7318 24.0823C26.7187 23.9906 26.6729 23.9121 26.614 23.827C26.47 23.6111 26.2802 23.4082 26.1821 23.1792C26.025 22.8127 26.097 22.479 26.6009 22.2172C27.1768 21.9228 27.8181 21.9031 28.4986 22.0864C28.78 22.1649 28.7735 22.1649 28.9894 22.0406C29.0614 21.9948 29.1334 21.9555 29.2054 21.9162C29.369 21.8246 29.4279 21.8246 29.5915 21.9162C29.6438 21.9424 29.6896 21.9751 29.742 22.0013C30.0888 22.1976 30.0888 22.1976 29.7485 22.4005C29.5064 22.5379 29.5064 22.5379 29.7093 22.7015C29.8663 22.8258 29.9906 22.9567 30.0823 23.1007C30.1542 23.1727 30.1281 23.2316 29.9972 23.2708ZM33.9628 27.5767C33.3542 27.9301 32.3661 27.9301 31.751 27.5767C31.1424 27.2233 31.1358 26.6475 31.7444 26.2941C32.353 25.9407 33.3411 25.9407 33.9563 26.2941C34.5714 26.6475 34.5779 27.2233 33.9628 27.5767ZM22.3146 20.8496C21.706 21.2029 20.7179 21.2029 20.1028 20.8496C19.4876 20.4962 19.4876 19.9203 20.0962 19.567C20.7048 19.2136 21.6929 19.2136 22.3081 19.567C22.9167 19.9203 22.9232 20.4962 22.3146 20.8496ZM42.2409 24.8348L24.8013 14.7637C23.7935 14.1813 22.1576 14.1813 21.1563 14.7637L11.8051 20.1952C10.8038 20.7776 10.8104 21.7264 11.8181 22.3089L29.2577 32.38C30.2655 32.9624 31.9015 32.9624 32.9027 32.38L42.2474 26.9485C43.2552 26.3661 43.2486 25.4172 42.2409 24.8348ZM33.0925 30.4626C32.9812 30.3579 32.8503 30.2597 32.6933 30.1681C31.6724 29.5792 30.0168 29.5792 29.0025 30.1681C28.924 30.2139 28.8585 30.2597 28.7866 30.3121L15.2472 22.4921C15.378 22.4397 15.5024 22.3808 15.6202 22.3154C16.6345 21.7264 16.6279 20.771 15.6071 20.1821C15.4958 20.1166 15.378 20.0577 15.2537 20.0119L20.8357 16.7662C20.9208 16.8381 21.0189 16.9036 21.1302 16.969C22.151 17.558 23.8066 17.558 24.8209 16.969C24.9387 16.9036 25.0369 16.8316 25.1285 16.7531L38.7137 24.5927C38.5305 24.6581 38.3669 24.7301 38.2098 24.8217C37.1955 25.4107 37.1955 26.3726 38.2229 26.9616C38.38 27.0532 38.5566 27.1252 38.7399 27.1906L33.0925 30.4626ZM11.3601 24.3244C11.8051 24.0953 12.4922 24.1281 12.9175 24.3767L31.1489 34.8994L41.0041 29.1669C41.4294 28.9182 42.1296 28.9182 42.5615 29.1669C42.9934 29.4156 42.9934 29.8213 42.5681 30.07L32.0912 36.1558C31.5808 36.4568 30.7432 36.4568 30.2262 36.1558L29.8598 35.9464L29.6045 35.7959L11.3274 25.2471C10.8824 24.9919 10.8889 24.5665 11.3601 24.3244ZM42.5812 33.3615L32.1043 39.4474C31.5939 39.7484 30.7563 39.7484 30.2393 39.4474L29.8794 39.238L29.6176 39.0875L11.3404 28.5387C10.8955 28.2835 10.9085 27.8581 11.3797 27.616C11.8181 27.3869 12.5118 27.4197 12.9372 27.6683L31.162 38.191L41.0172 32.465C41.4491 32.2164 42.1427 32.2164 42.5746 32.465C43.0065 32.7072 43.0131 33.1129 42.5812 33.3615Z" fill="#F4B848"/>
</g>
<defs>
<clipPath id="clip0_203_8">
<rect width="32" height="32" fill="white" transform="translate(11 11)"/>
</clipPath>
</defs>
</svg>
