<svg width="82" height="82" viewBox="0 0 82 82" fill="none" xmlns="http://www.w3.org/2000/svg">
<path d="M75.1667 40.9999C75.1667 59.8685 59.8686 75.1666 41 75.1666C22.1315 75.1666 6.83337 59.8685 6.83337 40.9999C6.83337 22.1314 22.1315 6.83325 41 6.83325C59.8686 6.83325 75.1667 22.1314 75.1667 40.9999Z" fill="url(#paint0_linear_53_936)"/>
<path opacity="0.05" d="M17.2866 40.0877C31.2181 33.7754 47.5805 26.9267 50.1003 25.9359C55.6558 23.7509 58.0782 25.9837 57.699 29.5456C57.2326 33.9104 55.022 46.6118 53.6622 55.7121C52.8661 61.037 49.9824 62.6684 46.728 60.6031C44.2595 59.0365 35.7725 53.4793 33.5397 51.5797C32.0176 50.2847 30.9567 48.8327 32.0364 47.3532C32.3524 46.921 33.1604 46.0498 33.6097 45.6159C35.863 43.4326 35.5589 42.9628 32.8342 44.912C32.5096 45.1444 30.627 46.5093 29.8531 47.0252C27.9569 48.2894 26.2127 48.3577 23.2555 47.3532C20.8365 46.5315 18.5132 45.8977 17.0474 45.2639C15.0231 44.3876 14.2475 41.4646 17.2866 40.0877Z" fill="black"/>
<path opacity="0.07" d="M18.5115 40.3014C31.447 34.5187 47.355 27.8921 49.6817 26.9542C55.2577 24.7026 57.3094 26.0385 56.7098 30.3897C56.1529 34.4179 54.1763 46.8819 52.7909 55.2374C51.9743 60.1557 49.5895 61.2388 46.4837 59.2298C44.5379 57.9758 36.7069 52.8167 34.8073 51.315C33.3381 50.1551 31.816 48.8158 33.5943 46.8768C34.1888 46.2293 37.4723 43.0604 39.9271 40.7029C41.3502 39.3345 40.8428 38.6597 39.1259 39.835C35.9775 41.9927 30.8268 45.4076 29.9078 46.0278C28.1567 47.2065 26.5116 47.4901 23.6484 46.5898C21.3917 45.8791 19.2119 45.1907 18.0758 44.7482C15.5373 43.7642 15.5031 41.6459 18.5115 40.3014Z" fill="black"/>
<path d="M19.7364 40.5166C31.6776 35.2634 47.1295 28.8589 49.2632 27.9723C54.858 25.6524 56.5749 26.0965 55.719 31.2352C55.104 34.9286 53.3308 47.1551 51.9163 54.7658C51.0775 59.2792 49.1949 59.8139 46.2361 57.8613C44.813 56.9217 37.6295 52.1708 36.0698 51.0553C34.6467 50.0388 32.6839 48.8156 35.1456 46.4069C36.0219 45.5493 41.7636 40.0656 46.2378 35.7981C46.8237 35.2378 46.0874 34.317 45.4109 34.7663C39.3805 38.7655 31.0199 44.3159 29.9556 45.0385C28.3481 46.1301 26.8038 46.6307 24.0328 45.8346C21.9384 45.2333 19.8936 44.5158 19.0975 44.2424C16.031 43.1901 16.7588 41.8268 19.7364 40.5166Z" fill="white"/>
<defs>
<linearGradient id="paint0_linear_53_936" x1="16.8408" y1="16.8407" x2="65.1593" y2="65.1592" gradientUnits="userSpaceOnUse">
<stop stop-color="#33BEF0"/>
<stop offset="1" stop-color="#0A85D9"/>
</linearGradient>
</defs>
</svg>
